<svg width="107" height="20" viewBox="0 0 107 20" fill="none" xmlns="http://www.w3.org/2000/svg">
<g clip-path="url(#clip0_1319_2087)">
<path d="M20 0H0V20H20V0Z" fill="#F9C04D"/>
<path d="M41.6666 0H21.6666V20H41.6666V0Z" fill="#F9C04D"/>
<path d="M63.3334 0H43.3334V20H63.3334V0Z" fill="#F9C04D"/>
<path d="M85 0H65V20H85V0Z" fill="#F9C04D"/>
<path d="M106.667 0H86.6666V20H106.667V0Z" fill="#F9C04D"/>
<path d="M9.99976 13.4789L13.0414 12.7081L14.3123 16.6248L9.99976 13.4789ZM16.9998 8.41642H11.6456L9.99976 3.37476L8.35392 8.41642H2.99976L7.33309 11.5414L5.68726 16.5831L10.0206 13.4581L12.6873 11.5414L16.9998 8.41642Z" fill="white"/>
<path d="M31.6664 13.4789L34.708 12.7081L35.9789 16.6248L31.6664 13.4789ZM38.6664 8.41642H33.3122L31.6664 3.37476L30.0205 8.41642H24.6664L28.9997 11.5414L27.3539 16.5831L31.6872 13.4581L34.3539 11.5414L38.6664 8.41642Z" fill="white"/>
<path d="M53.333 13.4789L56.3747 12.7081L57.6455 16.6248L53.333 13.4789ZM60.333 8.41642H54.9788L53.333 3.37476L51.6872 8.41642H46.333L50.6663 11.5414L49.0205 16.5831L53.3538 13.4581L56.0205 11.5414L60.333 8.41642Z" fill="white"/>
<path d="M74.9998 13.4789L78.0414 12.7081L79.3123 16.6248L74.9998 13.4789ZM81.9998 8.41642H76.6456L74.9998 3.37476L73.3539 8.41642H67.9998L72.3331 11.5414L70.6873 16.5831L75.0206 13.4581L77.6873 11.5414L81.9998 8.41642Z" fill="white"/>
<path d="M96.6664 13.4789L99.708 12.7081L100.979 16.6248L96.6664 13.4789ZM103.666 8.41642H98.3122L96.6664 3.37476L95.0206 8.41642H89.6664L93.9997 11.5414L92.3539 16.5831L96.6872 13.4581L99.3539 11.5414L103.666 8.41642Z" fill="white"/>
</g>
<defs>
<clipPath id="clip0_1319_2087">
<rect width="106.667" height="20" fill="white"/>
</clipPath>
</defs>
</svg>
