<svg width="16" height="16" viewBox="0 0 16 16" fill="none" xmlns="http://www.w3.org/2000/svg">
<path d="M2 1.5C1.73478 1.5 1.48043 1.60536 1.29289 1.79289C1.10536 1.98043 1 2.23478 1 2.5V7.086C1.00006 7.3512 1.10545 7.60551 1.293 7.793L8.293 14.793C8.48053 14.9805 8.73484 15.0858 9 15.0858C9.26517 15.0858 9.51947 14.9805 9.707 14.793L14.293 10.207C14.4805 10.0195 14.5858 9.76517 14.5858 9.5C14.5858 9.23484 14.4805 8.98053 14.293 8.793L7.293 1.793C7.10551 1.60545 6.8512 1.50006 6.586 1.5H2ZM6 5C6 5.39783 5.84197 5.77936 5.56066 6.06066C5.27936 6.34197 4.89783 6.5 4.5 6.5C4.10218 6.5 3.72064 6.34197 3.43934 6.06066C3.15804 5.77936 3 5.39783 3 5C3 4.60218 3.15804 4.22064 3.43934 3.93934C3.72064 3.65804 4.10218 3.5 4.5 3.5C4.89783 3.5 5.27936 3.65804 5.56066 3.93934C5.84197 4.22064 6 4.60218 6 5Z" fill="#3CBE81"/>
</svg>
