<svg width="36" height="38" viewBox="0 0 36 38" fill="none" xmlns="http://www.w3.org/2000/svg">
<path d="M10.755 31.815H6.55499L0.375 36.795H10.755V31.815ZM31.995 2.955V0.375H0.494995V2.955H31.995Z" fill="#F9C04D"/>
<path d="M31.995 2.955V23.295V2.955Z" fill="#F9C04D"/>
<path d="M22.575 5.41501H29.775V9.795H22.575V5.41501ZM12.975 12.495H20.175V16.875H12.975V12.495ZM12.975 5.41501H20.175V9.795H12.975V5.41501ZM3.19501 5.41501H10.455V9.795H3.19501V5.41501ZM3.19501 19.695H10.455V24.075H3.19501V19.695ZM12.975 19.695H20.175V24.075H12.975V19.695ZM3.19501 12.495H10.455V16.875H3.19501V12.495Z" fill="#F9C04D"/>
<path d="M0.375 36.795L0.494995 2.955L0.375 36.795ZM13.755 36.795H10.755H13.755Z" fill="#F9C04D"/>
<path d="M21.165 30.285L20.085 36.765H34.485L33.405 30.285H21.165Z" fill="#F9C04D"/>
<path d="M29.025 26.265H25.545V28.005H29.025V26.265Z" fill="#F9C04D"/>
<path d="M26.205 26.265V14.025C26.145 12.585 28.485 12.585 28.425 14.025V26.265M21.165 30.285C19.005 30.285 19.365 28.005 20.805 28.005L25.545 28.005M33.405 30.285C35.565 30.285 34.905 28.005 33.825 28.005L29.025 28.005" fill="#F9C04D"/>
<path d="M0.375 36.795L6.55499 31.815H10.755V36.795M0.375 36.795H10.755M0.375 36.795L0.494995 2.955M10.755 36.795H13.755M31.995 2.955V0.375H0.494995V2.955M31.995 2.955H0.494995M31.995 2.955V23.295M21.165 30.285L20.085 36.765H34.485L33.405 30.285M21.165 30.285H33.405M21.165 30.285C19.005 30.285 19.365 28.005 20.805 28.005L25.545 28.005M33.405 30.285C35.565 30.285 34.905 28.005 33.825 28.005L29.025 28.005M25.545 28.005V26.265H29.025V28.005M25.545 28.005H29.025M26.205 26.265V14.025C26.145 12.585 28.485 12.585 28.425 14.025V26.265M22.575 5.41501H29.775V9.795H22.575V5.41501ZM12.975 12.495H20.175V16.875H12.975V12.495ZM12.975 5.41501H20.175V9.795H12.975V5.41501ZM3.19501 5.41501H10.455V9.795H3.19501V5.41501ZM3.19501 19.695H10.455V24.075H3.19501V19.695ZM12.975 19.695H20.175V24.075H12.975V19.695ZM3.19501 12.495H10.455V16.875H3.19501V12.495Z" stroke="black" stroke-width="0.75" stroke-linecap="round" stroke-linejoin="round"/>
</svg>
