<svg width="32" height="37" viewBox="0 0 32 37" fill="none" xmlns="http://www.w3.org/2000/svg">
<path d="M21.015 25.095H28.395V15.795H21.015V25.095ZM14.475 34.155H0.375V36.375H31.095V34.155H14.475ZM12.375 0.375V34.155H14.475V0.375H12.375Z" fill="#F9C04D"/>
<path d="M21.015 15.795V10.995H28.395V15.795M21.015 15.795H28.395M21.015 15.795V25.095H28.395V15.795M0.375 34.155V0.375H12.375M0.375 34.155H14.475M0.375 34.155V36.375H31.095V34.155M12.375 0.375V34.155H14.475M12.375 0.375H14.475M14.475 0.375H31.095V34.155M14.475 0.375V34.155M31.095 34.155H14.475M10.335 20.655V15.375M16.575 20.655V15.375M7.27502 31.395H8.29501M5.17502 31.395H6.255M3.07501 31.395H4.155M23.715 31.395H24.795M25.815 31.395H26.895M27.915 31.395H28.935" stroke="black" stroke-width="0.75" stroke-linecap="round" stroke-linejoin="round"/>
</svg>
