<svg width="36" height="25" viewBox="0 0 36 25" fill="none" xmlns="http://www.w3.org/2000/svg">
<path d="M26.095 0.375H0.85498C0.58498 0.375 0.375 0.595011 0.375 0.855011V21.325C0.375 21.595 0.59498 21.805 0.85498 21.805H27.125H26.085V0.375H26.095ZM23.955 19.675H2.52496V2.52499H23.955V19.675Z" fill="#F9C04D"/>
<path d="M34.185 0.375H26.095V21.805H34.185C34.455 21.805 34.665 21.585 34.665 21.325V0.855011C34.665 0.585011 34.445 0.375 34.185 0.375ZM30.385 13.235C29.205 13.235 28.245 12.275 28.245 11.095C28.245 9.915 29.205 8.95502 30.385 8.95502C31.565 8.95502 32.525 9.915 32.525 11.095C32.525 12.275 31.565 13.235 30.385 13.235ZM30.385 6.80499C29.205 6.80499 28.245 5.84501 28.245 4.66501C28.245 3.48501 29.205 2.52499 30.385 2.52499C31.565 2.52499 32.525 3.48501 32.525 4.66501C32.525 5.84501 31.565 6.80499 30.385 6.80499Z" fill="#F9C04D"/>
<path d="M21.805 4.66501H4.66498V17.525H21.805V8.95502V4.66501Z" fill="#F9C04D"/>
<path d="M23.945 8.95502H21.805V13.245H23.945V8.95502Z" fill="#F9C04D"/>
<path d="M2.51495 21.815V23.955H6.80499V21.815H2.51495Z" fill="#F9C04D"/>
<path d="M32.525 21.815H28.235V23.955H32.525V21.815Z" fill="#F9C04D"/>
<path d="M26.095 0.375H0.85498C0.58498 0.375 0.375 0.595011 0.375 0.855011V21.325C0.375 21.595 0.59498 21.805 0.85498 21.805H27.125H26.085V0.375H26.095ZM26.095 0.375H34.185C34.445 0.375 34.665 0.585011 34.665 0.855011V21.325C34.665 21.585 34.455 21.805 34.185 21.805H26.095V0.375ZM21.805 8.95502V4.66501H4.66498V17.525H21.805V8.95502ZM21.805 8.95502H23.945V13.245H21.805V8.95502ZM23.955 19.675H2.52496V2.52499H23.955V19.675ZM30.385 13.235C29.205 13.235 28.245 12.275 28.245 11.095C28.245 9.915 29.205 8.95502 30.385 8.95502C31.565 8.95502 32.525 9.915 32.525 11.095C32.525 12.275 31.565 13.235 30.385 13.235ZM30.385 6.80499C29.205 6.80499 28.245 5.84501 28.245 4.66501C28.245 3.48501 29.205 2.52499 30.385 2.52499C31.565 2.52499 32.525 3.48501 32.525 4.66501C32.525 5.84501 31.565 6.80499 30.385 6.80499ZM2.51495 21.815V23.955H6.80499V21.815H2.51495ZM28.235 21.815H32.525V23.955H28.235V21.815Z" stroke="black" stroke-width="0.75" stroke-linecap="round" stroke-linejoin="round"/>
</svg>
