<svg width="37" height="37" viewBox="0 0 37 37" fill="none" xmlns="http://www.w3.org/2000/svg">
<path d="M25.215 19.155L17.655 11.595L25.215 19.155ZM26.715 20.535L25.215 19.155L26.715 20.535ZM20.115 27.435L20.055 30.375L25.815 36.075C26.475 36.735 27.495 36.735 28.215 36.075L33.915 30.375C34.575 29.775 34.515 28.575 33.915 27.975L26.715 20.535L20.115 27.435Z" fill="#F9C04D"/>
<path d="M12.915 16.875L12.975 16.275L10.155 16.155L10.335 12.975L7.57501 12.855L7.755 9.675L4.935 9.555L5.17499 6.435L2.35501 6.315L2.05499 4.635L6.375 0.375L17.655 11.595" fill="#F9C04D"/>
<path d="M24.315 31.715L29.575 26.455L31.735 28.615L26.475 33.875L24.315 31.715Z" fill="#F9C04D"/>
<path d="M14.415 19.515L12.735 19.395L12.915 16.875M20.115 27.435L19.995 25.095L18.795 25.035M14.595 19.755V21.735L17.475 21.855L17.175 24.975L18.795 25.035" fill="#F9C04D"/>
<path d="M14.595 19.755L14.415 19.515L12.735 19.395L12.915 16.875H12.375L0.555 28.455C0.315 28.695 0.315 29.235 0.555 29.475L2.055 30.915L7.275 36.135C7.515 36.375 8.05502 36.375 8.29502 36.135L19.335 25.095L18.735 25.035L17.175 24.975L17.415 21.855L14.535 21.735V19.755M36.075 7.935C36.075 7.755 36.015 7.575 35.895 7.455L31.095 2.715L29.175 0.794999C28.935 0.494999 28.455 0.434999 28.215 0.794999L18.075 11.235L17.655 11.595L25.215 19.155L25.815 18.615L35.895 8.415C36.015 8.295 36.075 8.175 36.075 7.935Z" fill="#F9C04D"/>
<path d="M25.215 19.155L17.655 11.595M25.215 19.155L26.715 20.535M25.215 19.155L25.815 18.615L35.895 8.415C36.015 8.295 36.075 8.175 36.075 7.935C36.075 7.755 36.015 7.575 35.895 7.455L31.095 2.715M17.655 11.595L6.375 0.375L2.05499 4.635L2.35501 6.315L5.17499 6.435L4.935 9.555L7.755 9.675L7.57501 12.855L10.335 12.975L10.155 16.155L12.975 16.275L12.915 16.875M17.655 11.595L18.075 11.235L28.215 0.794999C28.455 0.434999 28.935 0.494999 29.175 0.794999L31.095 2.715M26.715 20.535L33.915 27.975C34.515 28.575 34.575 29.775 33.915 30.375L28.215 36.075C27.495 36.735 26.475 36.735 25.815 36.075L20.055 30.375L20.115 27.435M26.715 20.535L20.115 27.435M20.115 27.435L19.995 25.095L18.795 25.035L17.175 24.975M12.915 16.875L12.735 19.395L14.415 19.515L14.595 19.755V21.735L17.475 21.855L17.175 24.975M12.915 16.875H12.375L0.555 28.455C0.315 28.695 0.315 29.235 0.555 29.475L2.055 30.915M17.175 24.975L18.735 25.035L19.335 25.095L8.29502 36.135C8.05502 36.375 7.515 36.375 7.275 36.135L2.055 30.915M17.175 24.975L17.415 21.855L14.535 21.735V19.755M2.055 30.915L7.395 25.515M12.495 24.015L10.335 26.115M7.75501 29.895L5.59501 31.995M13.155 27.495L10.995 29.595M31.095 2.715L28.695 5.055M34.035 7.635L31.635 10.035M27.315 6.495L26.355 7.455M30.495 7.515L28.095 9.855M23.895 10.875L22.995 11.775M26.295 13.215L23.895 15.615M24.315 31.715L29.575 26.455L31.735 28.615L26.475 33.875L24.315 31.715Z" stroke="#081219" stroke-width="0.75" stroke-linecap="round" stroke-linejoin="round"/>
</svg>
