<svg width="37" height="37" viewBox="0 0 37 37" fill="none" xmlns="http://www.w3.org/2000/svg">
<path d="M26.7449 25.2754V34.9954H23.4449C22.9649 34.9954 22.4849 34.8754 22.0049 34.7554C17.9849 33.6154 17.445 27.7954 21.225 25.8754C21.885 25.5154 22.6649 25.3354 23.4449 25.2754H26.7449ZM26.7449 25.2754C26.6849 24.7354 27.1649 24.3154 27.6449 24.3154H31.4249V35.8954H27.6449C27.1049 35.8954 26.6849 35.4154 26.7449 34.9354L26.7449 25.2754ZM24.7649 27.6154V32.7154M22.4249 32.7154V27.6154M18.585 30.3754H9.04495C1.36495 30.5554 1.36495 18.4954 9.04495 18.6154H24.585C28.245 18.7354 28.245 12.9154 24.585 13.0354H3.345C-0.615 13.0954 -0.615 6.7954 3.345 6.9154H18.225C22.425 6.9754 22.425 0.315403 18.225 0.375403H1.12497M29.025 26.1754V27.2554M29.025 30.4954V31.5154M29.025 28.2754V29.4154M31.4249 33.7954H35.5049C36.8249 33.7954 36.8249 31.7554 35.5049 31.7554H31.4249V33.7954ZM31.4249 28.3954H35.5049C36.8249 28.3954 36.8249 26.2954 35.5049 26.3554H31.4249V28.3954Z" stroke="black" stroke-width="0.75" stroke-linecap="round" stroke-linejoin="round"/>
</svg>
