<svg width="31" height="36" viewBox="0 0 31 36" fill="none" xmlns="http://www.w3.org/2000/svg">
<path d="M3.285 13.035V11.205H7.625V13.035M3.285 13.035H7.625M3.285 13.035V20.395M7.625 13.035V16.155M7.625 16.155L15.145 8.805L30.015 23.315L28.735 24.625L15.145 11.355L3.285 22.945M7.625 16.155L3.285 20.395M3.285 20.395L0.375 23.225L1.655 24.525L3.285 22.945M27.015 30.205V22.955M27.015 30.205H19.055M27.015 30.205V35.075H19.055V30.205M11.235 30.205V26.695H19.055V30.205M3.285 22.945V30.195M11.235 35.065H19.055M23.035 4.775C21.355 2.025 18.435 0.385 15.215 0.375H15.195C11.975 0.375 9.04501 2.025 7.35501 4.775M12.585 7.975C13.145 7.055 14.125 6.505 15.205 6.505H15.225C16.285 6.505 17.255 7.065 17.815 7.975M11.965 20.145C11.965 21.905 13.395 23.325 15.145 23.325C16.895 23.325 18.325 21.895 18.325 20.145C18.325 18.385 16.895 16.965 15.145 16.965C13.395 16.965 11.965 18.395 11.965 20.145ZM15.145 21.505C14.395 21.505 13.785 20.895 13.785 20.145C13.785 19.395 14.395 18.785 15.145 18.785C15.895 18.785 16.505 19.395 16.505 20.145C16.505 20.895 15.895 21.505 15.145 21.505ZM11.245 30.205H3.285V35.075H11.245V30.205ZM21.295 5.845L19.555 6.915C18.625 5.385 17.005 4.475 15.215 4.465C15.215 4.465 15.205 4.465 15.195 4.465C13.405 4.465 11.775 5.385 10.835 6.915L9.095 5.845C10.405 3.705 12.685 2.425 15.195 2.425H15.215C17.715 2.425 19.985 3.715 21.295 5.845Z" stroke="black" stroke-width="0.75" stroke-linecap="round" stroke-linejoin="round"/>
</svg>
