<svg width="36" height="37" viewBox="0 0 36 37" fill="none" xmlns="http://www.w3.org/2000/svg">
<path d="M11.965 25.315V27.395V25.315Z" fill="#F9C04D"/>
<path d="M11.965 29.465V31.545V29.465Z" fill="#F9C04D"/>
<path d="M11.965 33.625V35.705V33.625Z" fill="#F9C04D"/>
<path d="M11.805 3.495H10.765V8.205C11.085 8.165 11.445 8.14499 11.805 8.13499C12.155 8.13499 12.485 8.145 12.845 8.185V5.565H35.465V3.485C34.965 3.485 12.295 3.485 11.805 3.485V3.495Z" fill="#F9C04D"/>
<path d="M35.465 0.375V35.685V0.375Z" fill="#F9C04D"/>
<path d="M12.845 8.19501C12.485 8.15501 12.155 8.135 11.805 8.145C11.445 8.145 11.095 8.175 10.765 8.215C6.38501 8.755 2.955 12.455 2.505 17.015H21.225C20.765 12.385 17.255 8.685 12.845 8.205V8.19501Z" fill="#F9C04D"/>
<path d="M0.375 16.995V19.075H23.235V16.995H0.375Z" fill="#F9C04D"/>
<path d="M0.375 19.075V23.235H23.235V19.075H0.375Z" fill="#F9C04D"/>
<path d="M11.965 25.315V27.395M11.965 29.465V31.545M11.965 33.625V35.705M35.465 0.375V35.685M0.375 19.075V16.995H23.235V19.075M0.375 19.075H23.235M0.375 19.075V23.235H23.235V19.075M16.115 25.295V27.375M16.115 29.445V31.525M16.115 33.605V35.685M20.275 25.295V27.375M20.275 29.445V31.525M20.275 33.605V35.685M3.635 25.295V27.375M3.635 29.445V31.525M3.635 33.605V35.685M7.785 25.295V27.375M7.785 29.445V31.525M7.785 33.605V35.685M11.805 3.495H10.765V8.205C11.085 8.165 11.445 8.14499 11.805 8.13499C12.155 8.13499 12.485 8.145 12.845 8.185V5.565H35.465V3.485C34.965 3.485 12.295 3.485 11.805 3.485V3.495ZM12.845 8.19501C12.485 8.15501 12.155 8.135 11.805 8.145C11.445 8.145 11.095 8.175 10.765 8.215C6.38501 8.755 2.955 12.455 2.505 17.015H21.225C20.765 12.385 17.255 8.685 12.845 8.205V8.19501Z" stroke="black" stroke-width="0.75" stroke-linecap="round" stroke-linejoin="round"/>
</svg>
