<svg width="37" height="36" viewBox="0 0 37 36" fill="none" xmlns="http://www.w3.org/2000/svg">
<path d="M1.54498 25.765C1.54498 28.215 2.74499 30.385 4.58499 31.725C5.23499 32.195 5.95499 32.575 6.73499 32.815C7.43499 33.035 8.165 33.145 8.935 33.145H27.145C27.915 33.145 28.655 33.025 29.345 32.815C30.125 32.575 30.845 32.195 31.495 31.725C33.335 30.385 34.535 28.215 34.535 25.765V21.355H1.54498V25.765Z" fill="#F9C04D"/>
<path d="M34.825 19.055H1.245C0.764995 19.055 0.375 19.445 0.375 19.925V20.465C0.375 20.945 0.764995 21.335 1.245 21.335H34.825C35.305 21.335 35.695 20.945 35.695 20.465V19.925C35.695 19.445 35.305 19.055 34.825 19.055Z" fill="#F9C04D"/>
<path d="M4.375 11.315C4.525 11.315 4.65498 11.255 4.76498 11.175C4.93498 11.055 5.065 10.855 5.065 10.625V8.745C5.065 8.515 4.94498 8.31499 4.76498 8.19499C4.65498 8.11499 4.525 8.05499 4.375 8.05499H3.17499C3.02499 8.05499 2.88499 8.11499 2.77499 8.19499C2.60499 8.32499 2.48499 8.51499 2.48499 8.73499V10.615C2.48499 10.845 2.60499 11.035 2.77499 11.155C2.88499 11.235 3.02499 11.295 3.17499 11.295H4.375V11.315Z" fill="#F9C04D"/>
<path d="M9.52498 3.075C9.37498 3.125 9.235 3.195 9.105 3.265C8.195 3.805 7.76499 4.945 8.12499 6.025L8.36498 6.72499L13.715 4.92499L13.475 4.22499C13.115 3.16499 12.105 2.52499 11.075 2.61499C10.905 2.63499 10.745 2.665 10.585 2.715L9.53499 3.06499L9.52498 3.075Z" fill="#F9C04D"/>
<path d="M8.35501 6.73499C7.97501 6.86499 7.77499 7.27501 7.89499 7.65501L8.03501 8.085C8.16501 8.465 8.57499 8.665 8.95499 8.545L14.305 6.745C14.685 6.615 14.885 6.205 14.765 5.825L14.625 5.395C14.495 5.015 14.085 4.815 13.705 4.935L8.35501 6.73499Z" fill="#F9C04D"/>
<path d="M10.095 12.695V11.475M12.585 12.695V11.475M15.075 12.695V11.475M10.095 16.445V15.225M12.585 16.445V15.225M15.075 16.445V15.225M4.375 8.06499C4.525 8.06499 4.65498 8.12499 4.76498 8.20499V4.80499C4.76498 3.45499 5.86499 2.36499 7.20499 2.36499C7.96499 2.36499 8.65501 2.71499 9.10501 3.27499C9.23501 3.19499 9.37499 3.13499 9.52499 3.08499L10.575 2.73499C10.735 2.67499 10.905 2.64499 11.065 2.63499C10.295 1.27499 8.82499 0.375 7.20499 0.375C4.75499 0.375 2.76498 2.36499 2.76498 4.81499V8.22499C2.87498 8.14499 3.01501 8.08499 3.16501 8.08499H4.36499L4.375 8.06499ZM4.76498 11.185C4.65498 11.265 4.525 11.325 4.375 11.325H3.17499C3.02499 11.325 2.88499 11.265 2.77499 11.185V19.065H4.77499V11.195L4.76498 11.185ZM2.77499 33.535C2.43499 33.875 2.43499 34.435 2.77499 34.775L3.165 35.165C3.505 35.505 4.06499 35.505 4.40499 35.165L6.74499 32.825C5.96499 32.585 5.245 32.205 4.595 31.735L2.785 33.545L2.77499 33.535ZM31.675 35.155C32.015 35.495 32.575 35.495 32.915 35.155L33.305 34.765C33.645 34.425 33.645 33.865 33.305 33.525L31.495 31.715C30.845 32.185 30.125 32.565 29.345 32.805L31.685 35.145L31.675 35.155ZM1.54498 25.765C1.54498 28.215 2.74499 30.385 4.58499 31.725C5.23499 32.195 5.95499 32.575 6.73499 32.815C7.43499 33.035 8.165 33.145 8.935 33.145H27.145C27.915 33.145 28.655 33.025 29.345 32.815C30.125 32.575 30.845 32.195 31.495 31.725C33.335 30.385 34.535 28.215 34.535 25.765V21.355H1.54498V25.765ZM34.825 19.055H1.245C0.764995 19.055 0.375 19.445 0.375 19.925V20.465C0.375 20.945 0.764995 21.335 1.245 21.335H34.825C35.305 21.335 35.695 20.945 35.695 20.465V19.925C35.695 19.445 35.305 19.055 34.825 19.055ZM4.375 11.315C4.525 11.315 4.65498 11.255 4.76498 11.175C4.93498 11.055 5.065 10.855 5.065 10.625V8.745C5.065 8.515 4.94498 8.31499 4.76498 8.19499C4.65498 8.11499 4.525 8.05499 4.375 8.05499H3.17499C3.02499 8.05499 2.88499 8.11499 2.77499 8.19499C2.60499 8.32499 2.48499 8.51499 2.48499 8.73499V10.615C2.48499 10.845 2.60499 11.035 2.77499 11.155C2.88499 11.235 3.02499 11.295 3.17499 11.295H4.375V11.315ZM9.52498 3.075C9.37498 3.125 9.235 3.195 9.105 3.265C8.195 3.805 7.76499 4.945 8.12499 6.025L8.36498 6.72499L13.715 4.92499L13.475 4.22499C13.115 3.16499 12.105 2.52499 11.075 2.61499C10.905 2.63499 10.745 2.665 10.585 2.715L9.53499 3.06499L9.52498 3.075ZM8.35501 6.73499C7.97501 6.86499 7.77499 7.27501 7.89499 7.65501L8.03501 8.085C8.16501 8.465 8.57499 8.665 8.95499 8.545L14.305 6.745C14.685 6.615 14.885 6.205 14.765 5.825L14.625 5.395C14.495 5.015 14.085 4.815 13.705 4.935L8.35501 6.73499Z" stroke="black" stroke-width="0.75" stroke-linecap="round" stroke-linejoin="round"/>
</svg>
