<svg width="37" height="37" viewBox="0 0 37 37" fill="none" xmlns="http://www.w3.org/2000/svg">
<path d="M30.4374 18.195L30.4374 24.975H31.9374H4.87742H6.37742L6.37741 18.195H2.59742C1.39742 18.135 0.317418 19.275 0.377418 20.475V29.475C0.317418 30.675 1.39742 31.755 2.59742 31.755H34.2174C35.4174 31.815 36.4974 30.735 36.4974 29.475V20.475C36.5574 19.275 35.4774 18.195 34.2174 18.195H30.4374ZM30.9174 0.375L29.2374 6.555H36.1374L34.5174 0.375H30.9174Z" fill="#F9C04D"/>
<path d="M32.7174 18.195V6.855M6.37741 18.195V13.695C6.31741 12.435 7.39741 11.415 8.65741 11.415H28.2174C29.4774 11.355 30.4374 12.435 30.4374 13.695V18.195M6.37741 18.195L6.37742 24.975H4.87742H31.9374H30.4374L30.4374 18.195M6.37741 18.195H2.59742C1.39742 18.135 0.317418 19.275 0.377418 20.475V29.475C0.317418 30.675 1.39742 31.755 2.59742 31.755H34.2174C35.4174 31.815 36.4974 30.735 36.4974 29.475V20.475C36.5574 19.275 35.4774 18.195 34.2174 18.195H30.4374M18.4374 24.975V11.415M4.87741 31.695V36.195H2.59741V31.695M34.1574 31.695V36.195H31.8774V31.695M30.9174 0.375L29.2374 6.555H36.1374L34.5174 0.375H30.9174Z" stroke="black" stroke-width="0.75" stroke-linecap="round" stroke-linejoin="round"/>
</svg>
