<svg width="36" height="38" viewBox="0 0 36 38" fill="none" xmlns="http://www.w3.org/2000/svg">
<path d="M9.13501 4.33501L17.235 0.375L33.435 8.41501V11.775L17.235 3.675L3.73499 10.335L1.03503 11.715V8.35501L6.435 5.655L9.13501 4.33501ZM9.13501 4.33501V0.375H6.435V5.71501M12.435 14.775V19.035M12.435 14.775H17.295V19.035H12.435M12.435 14.775H7.57501V19.035H12.435M7.995 30.855V24.015H15.975V36.675M7.995 36.675V32.775M14.415 10.095H15.495M16.515 10.095H17.595M18.615 10.095H19.635M18.495 36.675H0.375M3.79498 36.675V10.395M21.495 30.255L20.415 36.735H34.815L33.735 30.255M21.495 30.255H33.735M21.495 30.255C19.815 30.615 19.335 28.095 21.135 27.975H25.875M33.735 30.255C35.355 30.675 35.895 28.095 34.155 27.975H29.355L29.355 26.175M29.355 26.175H25.815M29.355 26.175H29.295V27.975H25.815V26.175M29.355 26.175L28.695 26.175M25.815 26.175L28.695 26.175M28.695 26.175V13.935C28.755 12.495 26.415 12.495 26.475 13.935V26.235M10.215 30.855H7.09503V32.775H10.215V30.855Z" stroke="black" stroke-width="0.75" stroke-linecap="round" stroke-linejoin="round"/>
</svg>
