<svg width="36" height="36" viewBox="0 0 36 36" fill="none" xmlns="http://www.w3.org/2000/svg">
<path d="M14.175 34.665H34.665V22.935M14.175 34.665V22.935M14.175 34.665H0.375V20.865M34.665 22.935H14.175M34.665 22.935V20.865M14.175 22.935V20.865M14.175 20.865H0.375M14.175 20.865H34.665M0.375 20.865V18.795H19.595M34.665 20.865V18.795H29.255M29.255 18.795H19.595M29.255 18.795L28.565 16.035H20.285L19.595 18.795M16.835 9.13501H32.015M16.835 9.13501V12.585H32.015V9.13501M16.835 9.13501L22.355 5.685V0.375H26.495V5.685L32.015 9.13501M3.13495 0.375H14.175V15.345H3.13495M3.13495 0.375V15.345M3.13495 0.375H1.40497C0.834968 0.375 0.375 0.835009 0.375 1.41501V14.315C0.375 14.885 0.834968 15.355 1.40497 15.355V15.345H3.13495M10.625 7.435H12.225M11.1349 28.305H12.225M16.935 25.695H31.905V31.905H16.935V25.695Z" stroke="black" stroke-width="0.75" stroke-linecap="round" stroke-linejoin="round"/>
</svg>
