<svg width="102" height="112" viewBox="0 0 102 112" fill="none" xmlns="http://www.w3.org/2000/svg">
<path opacity="0.2" d="M96.5394 40.3543C96.5394 40.3543 80.6377 51.8009 94.8486 80.9818C107.47 106.897 72.7553 114.243 58.5133 109.999C40.064 104.5 31.5667 79.6869 16.4569 85.8267C1.34712 91.9665 -9.59709 56.4602 12.5362 45.9262C40.0694 32.8225 24.2476 22.1283 27.693 10.9004C30.1658 2.84211 55.266 -7.55856 66.7338 8.18542C76.384 21.4334 82.1176 17.5827 87.2254 16.433C94.592 14.7748 108.994 28.5012 96.5394 40.3543Z" fill="#F9C04D"/>
<path d="M96.7299 50.5759L96.621 51.2539C96.5302 51.8187 96.2188 52.3244 95.7552 52.6596C95.2917 52.9948 94.7139 53.1321 94.149 53.0414L94.0995 53.0335C93.6237 52.957 93.136 53.0421 92.7142 53.2751C92.2924 53.5081 91.9608 53.8757 91.7722 54.3192L76.4755 90.2951C76.0343 91.3349 75.2574 92.1969 74.2689 92.7436C73.2804 93.2902 72.1373 93.49 71.022 93.3109L28.3618 86.4567C27.2216 86.2762 26.178 85.7096 25.4055 84.8518C24.6331 83.994 24.1785 82.897 24.118 81.7442L21.9996 43.1696C21.9726 42.6779 21.7781 42.2102 21.4485 41.8443C21.119 41.4784 20.6741 41.2362 20.1879 41.1581C19.9082 41.1132 19.6401 41.0136 19.3989 40.865C19.1577 40.7165 18.9481 40.5219 18.7822 40.2923C18.6162 40.0628 18.497 39.8028 18.4315 39.5272C18.366 39.2516 18.3554 38.9658 18.4004 38.6861L18.5093 38.0082C18.5542 37.7285 18.6538 37.4604 18.8023 37.2192C18.9509 36.978 19.1455 36.7684 19.375 36.6024C19.6046 36.4364 19.8645 36.3173 20.1401 36.2518C20.4157 36.1863 20.7015 36.1757 20.9812 36.2206L39.0524 39.1241C39.3299 39.1687 39.6145 39.1321 39.8717 39.0188C40.1289 38.9054 40.3479 38.7202 40.5023 38.4852L53.1237 19.2803C53.2907 19.0248 53.5281 18.8231 53.8072 18.6996C54.0862 18.576 54.3951 18.5359 54.6965 18.584C54.9153 18.6178 55.1242 18.6987 55.3089 18.821C55.4831 18.935 55.6333 19.0823 55.7506 19.2544C55.868 19.4264 55.9502 19.62 55.9927 19.8239C56.0352 20.0278 56.0371 20.238 55.9983 20.4427C55.9595 20.6473 55.8807 20.8423 55.7665 21.0165L44.6418 37.9401C44.5081 38.1435 44.4274 38.3771 44.4071 38.6197C44.3869 38.8623 44.4277 39.1061 44.5258 39.3289C44.6239 39.5516 44.7763 39.7463 44.9689 39.8951C45.1616 40.0439 45.3884 40.1421 45.6288 40.1807L69.6801 44.0447C69.9205 44.0833 70.1667 44.0612 70.3964 43.9802C70.626 43.8992 70.8317 43.762 70.9947 43.5811C71.1577 43.4002 71.2728 43.1814 71.3295 42.9446C71.3861 42.7078 71.3826 42.4606 71.3193 42.2255L66.0468 22.6683C65.9403 22.262 65.9985 21.8302 66.2087 21.4666C66.4188 21.103 66.764 20.8371 67.1692 20.7266C67.3828 20.6682 67.6065 20.6569 67.8249 20.6933C68.1262 20.7421 68.4069 20.8769 68.6333 21.0817C68.8596 21.2864 69.0218 21.5523 69.1004 21.8472L75.0706 44.0393C75.1437 44.3108 75.2936 44.5553 75.5023 44.7435C75.7111 44.9318 75.9699 45.0556 76.2474 45.1002L94.9422 48.1039C95.2219 48.1488 95.49 48.2484 95.7312 48.3969C95.9725 48.5455 96.1821 48.7401 96.3481 48.9696C96.5141 49.1991 96.6332 49.4591 96.6988 49.7347C96.7643 50.0103 96.7749 50.2962 96.7299 50.5759V50.5759Z" fill="#F68836"/>
<path d="M40.1048 45.2915L35.3938 44.5345C35.3557 44.5284 35.3197 44.5544 35.3136 44.5926L29.6989 79.5367C29.6928 79.5748 29.7188 79.6108 29.7569 79.6169L34.4679 80.3738C34.5061 80.38 34.542 80.354 34.5482 80.3158L40.1628 45.3717C40.169 45.3335 40.143 45.2976 40.1048 45.2915Z" fill="#FEF2DB"/>
<path d="M79.1023 51.446L74.3914 50.6891C74.3532 50.683 74.3173 50.7089 74.3112 50.7471L68.6965 85.6912C68.6904 85.7294 68.7164 85.7653 68.7545 85.7714L73.4655 86.5284C73.5037 86.5345 73.5396 86.5085 73.5457 86.4703L79.1603 51.5262C79.1665 51.4881 79.1405 51.4522 79.1023 51.446Z" fill="#FEF2DB"/>
<path d="M49.8058 46.8606L45.0964 46.102C45.0583 46.0958 45.0224 46.1218 45.0162 46.1599L39.3888 81.0921C39.3827 81.1303 39.4086 81.1662 39.4468 81.1723L44.1562 81.931C44.1943 81.9371 44.2303 81.9112 44.2364 81.873L49.8638 46.9408C49.8699 46.9027 49.844 46.8668 49.8058 46.8606Z" fill="#FEF2DB"/>
<path d="M59.6121 48.3143L54.9011 47.5574C54.863 47.5512 54.8271 47.5772 54.8209 47.6154L49.2063 82.5595C49.2001 82.5976 49.2261 82.6335 49.2643 82.6397L53.9753 83.3966C54.0134 83.4028 54.0494 83.3768 54.0555 83.3386L59.6701 48.3945C59.6763 48.3564 59.6503 48.3204 59.6121 48.3143Z" fill="#FEF2DB"/>
<path d="M69.3577 49.8801L64.6468 49.1232C64.6086 49.117 64.5727 49.143 64.5665 49.1812L58.9519 84.1253C58.9457 84.1634 58.9717 84.1993 59.0099 84.2055L63.7209 84.9624C63.759 84.9685 63.795 84.9426 63.8011 84.9044L69.4157 49.9603C69.4219 49.9222 69.3959 49.8862 69.3577 49.8801Z" fill="#FEF2DB"/>
</svg>
