<svg width="32" height="32" viewBox="0 0 32 32" fill="none" xmlns="http://www.w3.org/2000/svg">
<path d="M26.667 9.33325H14.667" stroke="#1A1A1A" stroke-width="2" stroke-linecap="round" stroke-linejoin="round"/>
<path d="M18.667 22.6667H6.66699" stroke="#1A1A1A" stroke-width="2" stroke-linecap="round" stroke-linejoin="round"/>
<path d="M22.667 26.6667C24.8761 26.6667 26.667 24.8759 26.667 22.6667C26.667 20.4576 24.8761 18.6667 22.667 18.6667C20.4579 18.6667 18.667 20.4576 18.667 22.6667C18.667 24.8759 20.4579 26.6667 22.667 26.6667Z" stroke="#1A1A1A" stroke-width="2" stroke-linecap="round" stroke-linejoin="round"/>
<path d="M9.33301 13.3333C11.5421 13.3333 13.333 11.5424 13.333 9.33325C13.333 7.12411 11.5421 5.33325 9.33301 5.33325C7.12387 5.33325 5.33301 7.12411 5.33301 9.33325C5.33301 11.5424 7.12387 13.3333 9.33301 13.3333Z" stroke="#1A1A1A" stroke-width="2" stroke-linecap="round" stroke-linejoin="round"/>
</svg>
