<svg width="18" height="21" viewBox="0 0 18 21" fill="none" xmlns="http://www.w3.org/2000/svg">
<path d="M16.9209 5.58L11.6709 0.33C11.5665 0.225392 11.4424 0.142403 11.3058 0.0857795C11.1692 0.0291556 11.0228 6.89303e-06 10.875 0H1.875C1.37772 0 0.900805 0.197544 0.549175 0.549175C0.197544 0.900805 0 1.37772 0 1.875V18.375C0 18.8723 0.197544 19.3492 0.549175 19.7008C0.900805 20.0525 1.37772 20.25 1.875 20.25H15.375C15.8723 20.25 16.3492 20.0525 16.7008 19.7008C17.0525 19.3492 17.25 18.8723 17.25 18.375V6.375C17.25 6.07687 17.1316 5.79093 16.9209 5.58ZM13.7812 5.625H11.625V3.46875L13.7812 5.625ZM2.25 18V2.25H9.375V6.75C9.375 7.04837 9.49353 7.33452 9.70451 7.5455C9.91548 7.75647 10.2016 7.875 10.5 7.875H15V18H2.25ZM11.6709 11.2041C11.8823 11.4154 12.001 11.7021 12.001 12.0009C12.001 12.2998 11.8823 12.5865 11.6709 12.7978C11.4596 13.0092 11.1729 13.1279 10.8741 13.1279C10.5752 13.1279 10.2885 13.0092 10.0772 12.7978L9.75 12.4688V15.375C9.75 15.6734 9.63147 15.9595 9.42049 16.1705C9.20952 16.3815 8.92337 16.5 8.625 16.5C8.32663 16.5 8.04048 16.3815 7.8295 16.1705C7.61853 15.9595 7.5 15.6734 7.5 15.375V12.4688L7.17094 12.7987C6.95959 13.0101 6.67295 13.1288 6.37406 13.1288C6.07518 13.1288 5.78853 13.0101 5.57719 12.7987C5.36584 12.5874 5.24711 12.3008 5.24711 12.0019C5.24711 11.703 5.36584 11.4163 5.57719 11.205L7.82719 8.955C7.9317 8.85012 8.0559 8.7669 8.19264 8.71012C8.32939 8.65334 8.476 8.62411 8.62406 8.62411C8.77213 8.62411 8.91874 8.65334 9.05548 8.71012C9.19223 8.7669 9.31642 8.85012 9.42094 8.955L11.6709 11.2041Z" fill="#FD6B22"/>
</svg>
