<svg width="33" height="33" viewBox="0 0 33 33" fill="none" xmlns="http://www.w3.org/2000/svg">
<path d="M31.195 22.825H27.475C26.965 22.825 26.545 23.245 26.545 23.755C26.545 24.265 26.965 24.685 27.475 24.685H29.195C27.235 26.745 22.855 30.265 16.245 30.265C9.63499 30.265 5.27499 26.745 3.30499 24.685H5.02502C5.53502 24.685 5.95502 24.265 5.95502 23.755C5.95502 23.245 5.53502 22.825 5.02502 22.825H1.30499C1.09499 22.825 0.775022 22.945 0.585022 23.185C0.445022 23.355 0.375 23.615 0.375 23.755V27.475C0.375 27.985 0.794993 28.405 1.30499 28.405C1.81499 28.405 2.23505 27.985 2.23505 27.475V26.275C4.53505 28.605 9.23499 32.125 16.245 32.125C23.255 32.125 27.955 28.605 30.255 26.275V27.475C30.255 27.985 30.675 28.405 31.185 28.405C31.695 28.405 32.1151 27.985 32.1151 27.475V23.755C32.1151 23.615 32.045 23.365 31.895 23.175C31.635 22.845 31.415 22.875 31.185 22.825H31.195Z" fill="#F9C04D"/>
<path d="M16.255 25.615V18.175V25.615Z" fill="#F9C04D"/>
<path d="M11.555 24.055L13.415 18.475L11.555 24.055Z" fill="#F9C04D"/>
<path d="M19.095 18.465L20.955 24.045L19.095 18.465Z" fill="#F9C04D"/>
<path d="M7.60504 20.695L9.46503 18.835L7.60504 20.695Z" fill="#F9C04D"/>
<path d="M23.035 18.835L24.895 20.695L23.035 18.835Z" fill="#F9C04D"/>
<path d="M25.555 11.665H6.95502C6.44502 11.665 6.02502 12.085 6.02502 12.595V15.385H26.485V12.595C26.485 12.085 26.065 11.665 25.555 11.665Z" fill="#F9C04D"/>
<path d="M31.195 0.375H1.30499C0.794993 0.375 0.375 0.794993 0.375 1.30499V14.455C0.375 14.965 0.794993 15.385 1.30499 15.385H6.01501V12.595C6.01501 12.085 6.43501 11.665 6.94501 11.665H25.545C26.055 11.665 26.475 12.085 26.475 12.595V15.385H31.185C31.695 15.385 32.1151 14.965 32.1151 14.455V1.30499C32.1151 0.794993 31.695 0.375 31.185 0.375H31.195Z" fill="#F9C04D"/>
<path d="M16.255 25.615V18.175M11.555 24.055L13.415 18.475M19.095 18.465L20.955 24.045M7.60504 20.695L9.46503 18.835M23.035 18.835L24.895 20.695M27.645 3.35501H29.975M31.195 22.825H27.475C26.965 22.825 26.545 23.245 26.545 23.755C26.545 24.265 26.965 24.685 27.475 24.685H29.195C27.235 26.745 22.855 30.265 16.245 30.265C9.63499 30.265 5.27499 26.745 3.30499 24.685H5.02502C5.53502 24.685 5.95502 24.265 5.95502 23.755C5.95502 23.245 5.53502 22.825 5.02502 22.825H1.30499C1.09499 22.825 0.775022 22.945 0.585022 23.185C0.445022 23.355 0.375 23.615 0.375 23.755V27.475C0.375 27.985 0.794993 28.405 1.30499 28.405C1.81499 28.405 2.23505 27.985 2.23505 27.475V26.275C4.53505 28.605 9.23499 32.125 16.245 32.125C23.255 32.125 27.955 28.605 30.255 26.275V27.475C30.255 27.985 30.675 28.405 31.185 28.405C31.695 28.405 32.1151 27.985 32.1151 27.475V23.755C32.1151 23.615 32.045 23.365 31.895 23.175C31.635 22.845 31.415 22.875 31.185 22.825H31.195ZM25.555 11.665H6.95502C6.44502 11.665 6.02502 12.085 6.02502 12.595V15.385H26.485V12.595C26.485 12.085 26.065 11.665 25.555 11.665ZM31.195 0.375H1.30499C0.794993 0.375 0.375 0.794993 0.375 1.30499V14.455C0.375 14.965 0.794993 15.385 1.30499 15.385H6.01501V12.595C6.01501 12.085 6.43501 11.665 6.94501 11.665H25.545C26.055 11.665 26.475 12.085 26.475 12.595V15.385H31.185C31.695 15.385 32.1151 14.965 32.1151 14.455V1.30499C32.1151 0.794993 31.695 0.375 31.185 0.375H31.195Z" stroke="black" stroke-width="0.75" stroke-linecap="round" stroke-linejoin="round"/>
</svg>
