<svg width="28" height="37" viewBox="0 0 28 37" fill="none" xmlns="http://www.w3.org/2000/svg">
<path d="M13.8753 0.3753H2.6253M13.8753 0.3753V31.8753M13.8753 0.3753H25.1253M2.6253 0.3753C2.0253 0.3753 1.45533 0.605304 1.03533 1.0353M2.6253 0.3753C2.0253 0.3653 1.45533 0.605304 1.03533 1.0353M2.6253 0.3753H25.1253M1.03533 1.0353C0.605335 1.4553 0.3653 2.0253 0.3753 2.6253M1.03533 1.0353C0.605335 1.4553 0.3753 2.0253 0.3753 2.6253M0.3753 2.6253V31.8753M0.3753 31.8753H13.8753M0.3753 31.8753L0.375305 36.3753H2.62531V31.8753M0.3753 31.8753H2.62531M13.8753 31.8753H27.3753M26.7153 1.0353C26.2953 0.605304 25.7253 0.3653 25.1253 0.3753M26.7153 1.0353C27.1453 1.4553 27.3753 2.0253 27.3753 2.6253M26.7153 1.0353C26.2953 0.605304 25.7253 0.3753 25.1253 0.3753M26.7153 1.0353C27.1453 1.4553 27.3853 2.0253 27.3753 2.6253M27.3753 31.8753V2.6253M27.3753 31.8753H25.1253M27.3753 2.6253L27.3753 36.3753H25.1253V31.8753M25.1253 31.8753H2.62531M17.2653 17.8053V14.4453M10.5153 17.8053V14.4453" stroke="black" stroke-width="0.75" stroke-linecap="round" stroke-linejoin="round"/>
</svg>
