<svg width="24" height="37" viewBox="0 0 24 37" fill="none" xmlns="http://www.w3.org/2000/svg">
<path d="M14.4799 14.7164V23.5963C18.1999 25.9963 16.3399 32.2963 11.8399 32.1163C7.3399 32.2363 5.53991 25.9363 9.31991 23.5963V14.7164M14.4799 14.7164H9.31991M14.4799 14.7164L14.4799 7.69636C14.4799 6.97636 14.1799 6.37634 13.6999 5.89634C13.2199 5.35634 12.6199 5.11634 11.8999 5.11634C11.1799 5.11634 10.5799 5.41634 10.0999 5.89634C9.55991 6.37634 9.31992 6.97636 9.31992 7.69636L9.31991 14.7164M20.3599 12.9764H23.2399M20.3599 7.33634H23.2399M23.2399 10.1563H20.3599M23.2399 24.3764H20.3599M23.2399 15.7363H20.3599M20.3599 21.3764H23.2399M23.2399 18.5563H20.3599M0.379913 12.9764H3.31992M0.379913 7.33634H3.31992M3.31992 10.1563H0.379913M3.31992 24.3764H0.379913M3.31992 15.7363H0.379913M0.379913 21.3764H3.31992M3.31992 18.5563H0.379913M19.1599 36.4963H4.51989C2.29989 36.5563 0.499908 34.6363 0.379908 32.5363V4.45632C0.259908 2.29632 2.35989 0.316337 4.51989 0.376337H19.1599C21.3799 0.316337 23.2999 2.29632 23.2399 4.45632V32.5363C23.2999 34.6363 21.3199 36.5563 19.1599 36.4963Z" stroke="black" stroke-width="0.75" stroke-linecap="round" stroke-linejoin="round"/>
</svg>
