<svg width="38" height="38" viewBox="0 0 38 38" fill="none" xmlns="http://www.w3.org/2000/svg">
<path d="M8.05502 6.07501H0.735016V14.535L8.05502 6.07501ZM22.815 6.07501H15.435L4.935 18.615H12.315L22.815 6.07501ZM36.435 7.095V6.07501H30.135L19.635 18.615H27.015L36.435 7.095Z" fill="#F9C04D"/>
<path d="M22.815 6.07501H30.135H22.815ZM8.05502 6.07501L15.495 6.07502L8.05502 6.07501ZM4.935 18.615L0.735016 18.615V14.535M19.635 18.615H12.315H19.635ZM36.435 6.07501V18.615L27.015 18.615M25.935 3.07502H32.235V6.07502M32.235 3.07502C32.235 3.01502 31.755 1.755 31.335 1.275C30.195 0.0750003 28.035 0.0750003 26.835 1.275C26.395 1.795 26.085 2.41502 25.935 3.07502M25.935 3.07502L25.875 6.07502L25.935 3.07502Z" fill="#F9C04D"/>
<path d="M3.91501 3.07502H10.155L10.215 6.07502M10.155 3.07502C10.155 3.01502 9.735 1.755 9.255 1.275C8.11501 0.0750003 5.955 0.0750003 4.815 1.275C4.335 1.755 3.91501 3.07502 3.91501 3.07502" fill="#F9C04D"/>
<path d="M3.91501 3.07502L3.85501 6.07501L3.91501 3.07502ZM0.375 36.735H36.975H0.375Z" fill="#F9C04D"/>
<path d="M8.05502 36.735V18.615V36.735ZM29.115 36.735V18.615V36.735Z" fill="#F9C04D"/>
<path d="M8.05502 6.07501H0.735016V14.535M8.05502 6.07501L0.735016 14.535M8.05502 6.07501L15.495 6.07502M0.735016 14.535V18.615L4.935 18.615M22.815 6.07501H15.435L4.935 18.615M22.815 6.07501L12.315 18.615M22.815 6.07501H30.135M4.935 18.615H12.315M12.315 18.615H19.635M36.435 6.07501V7.095L27.015 18.615M36.435 6.07501H30.135M36.435 6.07501V18.615L27.015 18.615M30.135 6.07501L19.635 18.615M19.635 18.615H27.015M25.935 3.07502H32.235M25.935 3.07502C26.085 2.41502 26.395 1.795 26.835 1.275C28.035 0.0750003 30.195 0.0750003 31.335 1.275C31.755 1.755 32.235 3.01502 32.235 3.07502M25.935 3.07502L25.875 6.07502M32.235 3.07502V6.07502M3.91501 3.07502H10.155M3.91501 3.07502C3.91501 3.07502 4.335 1.755 4.815 1.275C5.955 0.0750003 8.115 0.0750003 9.255 1.275C9.735 1.755 10.155 3.01502 10.155 3.07502M3.91501 3.07502L3.85501 6.07501M10.155 3.07502L10.215 6.07502M0.375 36.735H36.975M8.05502 36.735V18.615M29.115 36.735V18.615" stroke="black" stroke-width="0.75" stroke-linecap="round" stroke-linejoin="round"/>
</svg>
