<svg width="29" height="35" viewBox="0 0 29 35" fill="none" xmlns="http://www.w3.org/2000/svg">
<path d="M28.205 2.10498C28.205 1.15498 27.435 0.375 26.475 0.375H2.105C1.155 0.375 0.375 1.14498 0.375 2.10498V7.11499H28.195V2.10498H28.205ZM11.245 4.85498H5.16499C4.58499 4.85498 4.11499 4.38499 4.11499 3.80499C4.11499 3.22499 4.58499 2.75497 5.16499 2.75497H11.245C11.825 2.75497 12.295 3.22499 12.295 3.80499C12.295 4.38499 11.825 4.85498 11.245 4.85498ZM19.525 4.89499C18.925 4.89499 18.435 4.40499 18.435 3.80499C18.435 3.20499 18.925 2.715 19.525 2.715C20.125 2.715 20.615 3.20499 20.615 3.80499C20.615 4.40499 20.125 4.89499 19.525 4.89499ZM23.395 4.89499C22.795 4.89499 22.305 4.40499 22.305 3.80499C22.305 3.20499 22.795 2.715 23.395 2.715C23.995 2.715 24.485 3.20499 24.485 3.80499C24.485 4.40499 23.995 4.89499 23.395 4.89499Z" fill="#F9C04D"/>
<path d="M0.384995 7.125V32.795C0.384995 33.745 1.15499 34.525 2.11499 34.525H26.485C27.435 34.525 28.215 33.755 28.215 32.795V7.125H0.384995ZM24.015 21.905H23.325C22.785 26.415 18.955 29.915 14.295 29.915C9.275 29.915 5.19499 25.845 5.19499 20.815C5.19499 15.785 9.265 11.715 14.295 11.715C18.955 11.715 22.785 15.215 23.325 19.725H24.015C24.615 19.725 25.095 20.205 25.095 20.805C25.095 21.405 24.615 21.885 24.015 21.885V21.905Z" fill="#F9C04D"/>
<path d="M20.555 21.905C20.045 24.895 17.435 27.175 14.305 27.175C10.985 27.175 8.25499 24.625 7.97499 21.375C7.95499 21.195 7.94499 21.015 7.94499 20.825C7.94499 17.315 10.785 14.475 14.295 14.475C17.435 14.475 20.035 16.755 20.545 19.745C20.545 19.745 20.545 19.745 20.555 19.745H23.315C22.775 15.235 18.945 11.735 14.285 11.735C9.265 11.735 5.185 15.805 5.185 20.835C5.185 25.865 9.255 29.935 14.285 29.935C18.945 29.935 22.775 26.435 23.315 21.925H20.555C20.555 21.925 20.555 21.925 20.545 21.925L20.555 21.905Z" fill="#F9C04D"/>
<path d="M17.415 20.825C16.755 21.145 15.995 21.145 15.335 20.825C14.675 20.505 13.915 20.505 13.255 20.825C12.595 21.145 11.835 21.145 11.175 20.825C10.515 20.505 9.755 20.505 9.095 20.825L8.05499 21.325L7.965 21.375C8.245 24.625 10.965 27.175 14.295 27.175C17.435 27.175 20.035 24.895 20.545 21.905C19.955 21.905 19.475 21.415 19.475 20.825C18.825 20.515 18.065 20.515 17.405 20.825H17.415Z" fill="#F9C04D"/>
<path d="M24.015 19.745H20.565C20.565 19.745 20.565 19.745 20.555 19.745C19.965 19.745 19.485 20.235 19.485 20.825C19.485 21.415 19.965 21.905 20.555 21.905C20.555 21.905 20.555 21.905 20.565 21.905H24.015C24.615 21.905 25.095 21.425 25.095 20.825C25.095 20.225 24.615 19.745 24.015 19.745Z" fill="#F9C04D"/>
<path d="M24.015 21.905H23.325C22.785 26.415 18.955 29.915 14.295 29.915C9.275 29.915 5.19499 25.845 5.19499 20.815C5.19499 15.785 9.265 11.715 14.295 11.715C18.955 11.715 22.785 15.215 23.325 19.725H24.015C24.615 19.725 25.095 20.205 25.095 20.805C25.095 21.405 24.615 21.885 24.015 21.885V21.905ZM24.015 21.905H20.565C20.555 21.905 20.555 21.905 20.555 21.905M24.015 21.905C24.615 21.905 25.095 21.425 25.095 20.825C25.095 20.225 24.615 19.745 24.015 19.745H20.565C20.565 19.745 20.565 19.745 20.555 19.745M20.555 21.905C20.045 24.895 17.435 27.175 14.305 27.175C10.985 27.175 8.25499 24.625 7.97499 21.375C7.95499 21.195 7.94499 21.015 7.94499 20.825C7.94499 17.315 10.785 14.475 14.295 14.475C17.435 14.475 20.035 16.755 20.545 19.745C20.545 19.745 20.545 19.745 20.555 19.745M20.555 21.905L20.545 21.925C20.555 21.925 20.555 21.925 20.555 21.925H23.315C22.775 26.435 18.945 29.935 14.285 29.935C9.255 29.935 5.185 25.865 5.185 20.835C5.185 15.805 9.265 11.735 14.285 11.735C18.945 11.735 22.775 15.235 23.315 19.745H20.555M20.555 21.905C19.965 21.905 19.485 21.415 19.485 20.825C19.485 20.235 19.965 19.745 20.555 19.745M28.205 2.10498C28.205 1.15498 27.435 0.375 26.475 0.375H2.105C1.155 0.375 0.375 1.14498 0.375 2.10498V7.11499H28.195V2.10498H28.205ZM11.245 4.85498H5.16499C4.58499 4.85498 4.11499 4.38499 4.11499 3.80499C4.11499 3.22499 4.58499 2.75497 5.16499 2.75497H11.245C11.825 2.75497 12.295 3.22499 12.295 3.80499C12.295 4.38499 11.825 4.85498 11.245 4.85498ZM19.525 4.89499C18.925 4.89499 18.435 4.40499 18.435 3.80499C18.435 3.20499 18.925 2.715 19.525 2.715C20.125 2.715 20.615 3.20499 20.615 3.80499C20.615 4.40499 20.125 4.89499 19.525 4.89499ZM23.395 4.89499C22.795 4.89499 22.305 4.40499 22.305 3.80499C22.305 3.20499 22.795 2.715 23.395 2.715C23.995 2.715 24.485 3.20499 24.485 3.80499C24.485 4.40499 23.995 4.89499 23.395 4.89499ZM0.384995 7.125V32.795C0.384995 33.745 1.15499 34.525 2.11499 34.525H26.485C27.435 34.525 28.215 33.755 28.215 32.795V7.125H0.384995ZM17.415 20.825C16.755 21.145 15.995 21.145 15.335 20.825C14.675 20.505 13.915 20.505 13.255 20.825C12.595 21.145 11.835 21.145 11.175 20.825C10.515 20.505 9.755 20.505 9.095 20.825L8.05499 21.325L7.965 21.375C8.245 24.625 10.965 27.175 14.295 27.175C17.435 27.175 20.035 24.895 20.545 21.905C19.955 21.905 19.475 21.415 19.475 20.825C18.825 20.515 18.065 20.515 17.405 20.825H17.415Z" stroke="black" stroke-width="0.75" stroke-linecap="round" stroke-linejoin="round"/>
</svg>
