<svg width="35" height="34" viewBox="0 0 35 34" fill="none" xmlns="http://www.w3.org/2000/svg">
<path d="M5.0556 1.50049H29.9447V30.6347C29.9447 31.4589 29.0036 31.9292 28.3444 31.4345L24.2713 28.3773C23.9406 28.1291 23.4912 28.11 23.1407 28.3292L18.5607 31.1939C17.9119 31.5997 17.0884 31.5997 16.4396 31.1939L11.8597 28.3292C11.5091 28.11 11.0598 28.1291 10.7291 28.3773L6.6559 31.4345C5.99671 31.9292 5.0556 31.4589 5.0556 30.6347V1.50049Z" stroke="#F9C04D" stroke-width="3"/>
<path d="M12.1668 11.878H17.5002" stroke="#F9C04D" stroke-width="3" stroke-linecap="round" stroke-linejoin="round"/>
<path d="M1.5 1.50012H33.5003" stroke="#F9C04D" stroke-width="3" stroke-linecap="round" stroke-linejoin="round"/>
<path d="M12.1668 18.7975H17.5002" stroke="#F9C04D" stroke-width="3" stroke-linecap="round" stroke-linejoin="round"/>
<path d="M22.8335 11.878H23.7224" stroke="#F9C04D" stroke-width="3" stroke-linecap="round" stroke-linejoin="round"/>
<path d="M22.8335 18.7975H23.7224" stroke="#F9C04D" stroke-width="3" stroke-linecap="round" stroke-linejoin="round"/>
</svg>
