<svg width="44" height="44" viewBox="0 0 44 44" fill="none" xmlns="http://www.w3.org/2000/svg">
<path d="M41.5326 30.4477H36.6101C35.9352 30.4477 35.3795 31.0032 35.3795 31.6779C35.3795 32.3525 35.9352 32.9081 36.6101 32.9081H38.8861C36.2925 35.6331 30.4966 40.2895 21.75 40.2895C13.0033 40.2895 7.23391 35.6331 4.62711 32.9081H6.90314C7.578 32.9081 8.13375 32.3525 8.13375 31.6779C8.13375 31.0032 7.578 30.4477 6.90314 30.4477H1.98061C1.70273 30.4477 1.27933 30.6064 1.02791 30.9239C0.842657 31.1487 0.75 31.4927 0.75 31.6779V36.5988C0.75 37.2734 1.30576 37.8291 1.98061 37.8291C2.65547 37.8291 3.2113 37.2734 3.2113 36.5988V35.0114C6.25478 38.0937 12.474 42.75 21.75 42.75C31.0259 42.75 37.2452 38.0937 40.2887 35.0114V36.5988C40.2887 37.2734 40.8444 37.8291 41.5193 37.8291C42.1942 37.8291 42.75 37.2734 42.75 36.5988V31.6779C42.75 31.4927 42.6573 31.162 42.4588 30.9106C42.1148 30.4741 41.8237 30.5138 41.5193 30.4477H41.5326Z" fill="#F9C04D"/>
<path d="M21.7632 34.1383V24.2964V34.1383Z" fill="#F9C04D"/>
<path d="M15.5439 32.0747L18.0052 24.6933L15.5439 32.0747Z" fill="#F9C04D"/>
<path d="M25.5213 24.6801L27.9825 32.0615L25.5213 24.6801Z" fill="#F9C04D"/>
<path d="M10.3171 27.63L12.7784 25.1696L10.3171 27.63Z" fill="#F9C04D"/>
<path d="M30.7349 25.1696L33.1961 27.63L30.7349 25.1696Z" fill="#F9C04D"/>
<path d="M34.0694 15.6848H9.457C8.78215 15.6848 8.22639 16.2404 8.22639 16.9151V20.6058H35.3001V16.9151C35.3001 16.2404 34.7443 15.6848 34.0694 15.6848Z" fill="#F9C04D"/>
<path d="M41.5326 0.75H1.98061C1.30576 0.75 0.75 1.30558 0.75 1.98023V19.3755C0.75 20.0502 1.30576 20.6058 1.98061 20.6058H8.21314V16.9151C8.21314 16.2404 8.7689 15.6848 9.44376 15.6848H34.0562C34.7311 15.6848 35.2869 16.2404 35.2869 16.9151V20.6058H41.5193C42.1942 20.6058 42.75 20.0502 42.75 19.3755V1.98023C42.75 1.30558 42.1942 0.75 41.5193 0.75H41.5326Z" fill="#F9C04D"/>
<path d="M21.7632 34.1383V24.2964M15.5439 32.0747L18.0052 24.6933M25.5213 24.6801L27.9825 32.0615M10.3171 27.63L12.7784 25.1696M30.7349 25.1696L33.1961 27.63M36.835 4.69206H39.9182M41.5326 30.4477H36.6101C35.9352 30.4477 35.3795 31.0032 35.3795 31.6779C35.3795 32.3525 35.9352 32.9081 36.6101 32.9081H38.8861C36.2925 35.6331 30.4966 40.2895 21.75 40.2895C13.0033 40.2895 7.23391 35.6331 4.62711 32.9081H6.90314C7.578 32.9081 8.13375 32.3525 8.13375 31.6779C8.13375 31.0032 7.578 30.4477 6.90314 30.4477H1.98061C1.70273 30.4477 1.27933 30.6064 1.02791 30.9239C0.842657 31.1487 0.75 31.4927 0.75 31.6779V36.5988C0.75 37.2734 1.30575 37.8291 1.98061 37.8291C2.65547 37.8291 3.2113 37.2734 3.2113 36.5988V35.0114C6.25478 38.0937 12.474 42.75 21.75 42.75C31.0259 42.75 37.2452 38.0937 40.2887 35.0114V36.5988C40.2887 37.2734 40.8444 37.8291 41.5193 37.8291C42.1942 37.8291 42.75 37.2734 42.75 36.5988V31.6779C42.75 31.4927 42.6573 31.162 42.4588 30.9106C42.1148 30.4741 41.8237 30.5138 41.5193 30.4477H41.5326ZM34.0694 15.6848H9.457C8.78215 15.6848 8.22639 16.2404 8.22639 16.9151V20.6058H35.3001V16.9151C35.3001 16.2404 34.7443 15.6848 34.0694 15.6848ZM41.5326 0.75H1.98061C1.30575 0.75 0.75 1.30558 0.75 1.98023V19.3755C0.75 20.0502 1.30575 20.6058 1.98061 20.6058H8.21314V16.9151C8.21314 16.2404 8.7689 15.6848 9.44376 15.6848H34.0562C34.7311 15.6848 35.2869 16.2404 35.2869 16.9151V20.6058H41.5193C42.1942 20.6058 42.75 20.0502 42.75 19.3755V1.98023C42.75 1.30558 42.1942 0.75 41.5193 0.75H41.5326Z" stroke="#1A1A1A" stroke-width="1.5" stroke-linecap="round" stroke-linejoin="round"/>
</svg>
